<svg xmlns="http://www.w3.org/2000/svg" viewBox="0 0 34 35.6"><path d="M32.9 19.6L12.6 23l.8 3.4h18v1.9H11.8l-1.1-5L7 8.2 0 1.4 1.4 0 8 6.3h26l-1.1 13.3zm-1-11.4H9.1l3 12.8 19-3.1.8-9.7zm-14.7 22c.6.6.9 1.4.9 2.2 0 .8-.3 1.6-.9 2.2-.6.6-1.4.9-2.2.9-1.7 0-3.1-1.4-3.1-3.1 0-.8.3-1.6.9-2.2.6-.6 1.4-.9 2.3-.9.7 0 1.5.3 2.1.9zm-1.4 3c.2-.2.4-.5.4-.9 0-.7-.5-1.2-1.2-1.2-.3 0-.6.1-.9.4-.2.2-.4.5-.4.8 0 .7.5 1.3 1.2 1.3h.1c.3 0 .6-.1.8-.4zm13.6-3c.6.6.9 1.4.9 2.2 0 .8-.3 1.6-.9 2.2-1.2 1.2-3.1 1.2-4.4 0-.6-.6-.9-1.4-.9-2.2 0-1.7 1.4-3.1 3.1-3.1.8-.1 1.6.3 2.2.9zm-1.4 3c.5-.5.5-1.2 0-1.7s-1.2-.5-1.7 0c-.2.2-.3.5-.3.8 0 .3.1.6.3.9.2.2.5.4.9.4.3 0 .6-.1.8-.4z" fill="#fff"/></svg>